<svg width="236" height="222" viewBox="0 0 236 222" fill="none" xmlns="http://www.w3.org/2000/svg">
<path d="M236 106.7L184.2 157.7V135.3H124.8V80.2H184.2V55.8L236 106.7ZM157.6 37.4H109.7V19.8H157C165.7 19.8 172.8 28 172.8 38V69.6H157.5L157.6 37.4ZM79.9 221.5L10.6 190C4.7 190 0 182.9 0 174.2V47.9C0 39.2 4.7 32.1 10.6 32.1L79.9 0.599976C85.8 0.599976 90.6 7.69998 90.6 16.4V205.8C90.6 214.4 85.8 221.5 79.9 221.5ZM62.4 92.6C55.2 92.6 49.3 98.5 49.3 105.7C49.3 113 55.2 118.8 62.4 118.8C69.7 118.8 75.5 112.9 75.5 105.7C75.5 98.5 69.6 92.6 62.4 92.6ZM157.6 143.1H172.9V184C172.9 194.1 165.8 202.3 157.1 202.3H109.7V184.6H157.6V143.1Z" fill="#FC0000"/>
</svg>
