<svg width="890" height="859" viewBox="0 0 890 859" fill="none" xmlns="http://www.w3.org/2000/svg">
<path d="M881 429.5C881 661.438 686.1 850 445 850C203.9 850 9 661.438 9 429.5C9 197.562 203.9 9 445 9C686.1 9 881 197.562 881 429.5Z" stroke="white" stroke-width="18"/>
<path d="M136.364 408.593C132.849 405.078 127.151 405.078 123.636 408.593C120.121 412.108 120.121 417.806 123.636 421.321L136.364 408.593ZM123.636 421.321L365.632 663.317L378.36 650.589L136.364 408.593L123.636 421.321Z" fill="white"/>
<path d="M757.566 272.364C761.08 268.849 761.08 263.151 757.566 259.636C754.051 256.121 748.353 256.121 744.838 259.636L757.566 272.364ZM377.89 652.039L757.566 272.364L744.838 259.636L365.163 639.311L377.89 652.039Z" fill="white"/>
</svg>
