<svg width="890" height="859" viewBox="0 0 890 859" fill="none" xmlns="http://www.w3.org/2000/svg">
<path d="M455.868 329.136L454.106 458.773H433.674L431.913 329.136H455.868ZM443.89 510.909C439.546 510.909 435.817 509.353 432.706 506.241C429.594 503.13 428.038 499.402 428.038 495.057C428.038 490.712 429.594 486.984 432.706 483.872C435.817 480.76 439.546 479.205 443.89 479.205C448.235 479.205 451.963 480.76 455.075 483.872C458.187 486.984 459.743 490.712 459.743 495.057C459.743 497.934 459.009 500.576 457.541 502.983C456.132 505.39 454.224 507.328 451.816 508.795C449.468 510.205 446.826 510.909 443.89 510.909Z" fill="white"/>
<path d="M426.681 247.5C434.764 233.5 454.971 233.5 463.054 247.5L634.96 545.25C643.043 559.25 632.939 576.75 616.774 576.75H272.961C256.796 576.75 246.692 559.25 254.775 545.25L426.681 247.5Z" stroke="white" stroke-width="18"/>
<path d="M881 429.5C881 661.438 686.1 850 445 850C203.9 850 9 661.438 9 429.5C9 197.562 203.9 9 445 9C686.1 9 881 197.562 881 429.5Z" stroke="white" stroke-width="18"/>
</svg>
